<?xml version="1.0" standalone="no"?>
<!DOCTYPE svg PUBLIC "-//W3C//DTD SVG 20010904//EN"
 "http://www.w3.org/TR/2001/REC-SVG-20010904/DTD/svg10.dtd">
<svg version="1.0" xmlns="http://www.w3.org/2000/svg"
 width="1600.000000pt" height="1625.000000pt" viewBox="0 0 1600.000000 1625.000000"
 preserveAspectRatio="xMidYMid meet">

<g transform="translate(0.000000,1625.000000) scale(0.100000,-0.100000)"
fill="#000000" stroke="none">
<path d="M8364 16218 c-47 -42 -116 -147 -187 -285 -69 -135 -219 -485 -283
-662 l-49 -133 -80 -61 c-179 -137 -329 -270 -501 -441 -282 -282 -469 -518
-622 -786 l-49 -85 -284 5 c-758 13 -1898 -1 -2139 -26 l-55 -6 -99 313 c-191
606 -417 1235 -532 1482 -180 385 -339 621 -449 663 -41 15 -45 15 -87 -4
-112 -49 -161 -166 -387 -934 -220 -748 -345 -1264 -567 -2336 -81 -395 -129
-605 -166 -722 -28 -91 -83 -275 -124 -410 -127 -429 -162 -519 -356 -925
-269 -566 -403 -801 -691 -1216 -161 -232 -227 -320 -397 -524 -195 -234 -245
-341 -257 -540 -6 -107 13 -176 78 -283 146 -240 586 -624 969 -844 325 -187
804 -412 1150 -540 74 -27 137 -51 139 -53 2 -2 -11 -18 -28 -36 -41 -40 -65
-88 -84 -169 -76 -312 -28 -605 162 -976 l67 -130 -23 -50 c-44 -99 -53 -314
-22 -542 26 -185 157 -620 264 -876 l45 -108 5 -247 c4 -256 18 -460 60 -891
34 -340 62 -531 155 -1060 43 -245 81 -465 85 -490 19 -124 208 -1053 240
-1182 l7 -28 -66 0 -66 0 0 -40 0 -40 4235 0 4235 0 0 40 c0 27 -4 40 -14 40
-9 0 -19 28 -30 87 -29 156 -233 1495 -301 1968 -36 253 -76 514 -89 580 -14
66 -63 338 -111 605 -141 794 -313 1570 -424 1917 -175 546 -249 803 -357
1248 -89 363 -123 487 -151 545 l-36 75 2 165 3 165 36 59 c20 32 41 59 47 61
5 1 62 15 125 30 302 73 777 255 1160 446 713 356 1134 619 1567 981 329 275
516 455 793 768 283 318 376 431 465 565 279 419 518 957 754 1695 40 124 108
331 151 460 76 226 270 888 343 1170 41 158 214 927 251 1115 157 802 229
1294 200 1369 -8 20 -58 21 -110 2 -22 -7 -144 -68 -272 -134 -129 -67 -322
-160 -430 -208 -343 -151 -1274 -629 -1607 -824 -490 -287 -701 -427 -1529
-1013 -261 -185 -792 -648 -1010 -880 -210 -225 -478 -531 -561 -642 -180
-241 -367 -535 -505 -795 -113 -213 -159 -284 -175 -268 -3 2 -32 154 -65 337
-33 182 -78 421 -99 529 -95 476 -145 750 -145 787 0 22 8 180 19 350 12 206
19 432 19 675 0 511 -25 829 -89 1144 -20 93 -44 223 -55 288 -12 65 -37 172
-56 236 -63 208 -89 249 -162 259 -57 8 -126 -27 -252 -128 -58 -46 -119 -94
-136 -106 l-32 -23 -36 108 c-21 59 -57 148 -81 197 -93 193 -175 248 -261
173z m7562 -142 c10 -25 -47 -430 -106 -766 -139 -783 -350 -1669 -576 -2410
-36 -118 -83 -273 -105 -345 -124 -408 -314 -952 -460 -1321 -95 -241 -279
-595 -434 -834 -61 -95 -336 -431 -530 -650 -388 -437 -963 -908 -1500 -1229
-537 -321 -889 -498 -1375 -693 -227 -92 -508 -178 -576 -178 l-22 0 19 61
c10 33 19 78 19 99 0 53 -64 176 -144 277 l-65 81 9 64 c5 34 13 118 16 186
l7 123 154 141 c84 78 169 152 188 165 51 35 163 89 262 128 242 93 653 278
1193 537 403 193 698 395 960 658 214 214 440 480 440 517 0 26 -29 12 -91
-45 -124 -112 -549 -461 -724 -593 -80 -61 -314 -211 -450 -289 -415 -239
-1166 -491 -1470 -494 -68 0 -90 4 -142 28 -70 32 -69 28 -53 138 23 158 176
559 330 868 141 282 524 897 750 1205 234 319 680 822 958 1081 64 60 182 172
262 249 80 78 160 151 178 164 104 72 147 -20 102 -217 -36 -160 -17 -168 73
-32 59 90 377 732 384 776 16 97 -106 135 -217 66 -26 -17 -59 -33 -72 -37
-121 -36 -663 -452 -1168 -897 -206 -182 -233 -211 -471 -493 -442 -527 -548
-673 -821 -1135 -298 -505 -372 -663 -586 -1250 l-20 -54 -6 59 c-33 316 -61
543 -81 660 -14 77 -50 281 -80 452 -30 172 -55 325 -55 341 0 24 195 373 337
602 350 566 504 760 1012 1273 283 286 388 381 671 609 372 299 506 395 1040
745 606 398 788 501 1740 993 184 95 473 237 642 315 169 78 367 176 440 217
168 95 204 109 214 84z m-6751 -162 c20 -8 48 -62 68 -134 33 -115 135 -648
157 -820 59 -461 77 -820 61 -1192 -13 -316 -21 -428 -30 -428 -3 0 -19 57
-34 128 -147 661 -366 1454 -561 2031 l-64 190 51 33 c29 18 86 61 127 96 108
90 170 117 225 96z m-1648 -1550 l-250 -627 -66 7 c-36 3 -163 9 -281 12 -118
4 -223 10 -233 13 -15 6 -9 21 46 118 202 353 547 735 922 1021 59 45 108 82
109 82 2 0 -110 -282 -247 -626z m226 -2298 c55 -14 127 -41 160 -60 194 -108
384 -287 512 -481 177 -270 241 -396 382 -754 73 -187 85 -239 108 -441 51
-476 35 -693 -69 -931 -60 -135 -136 -245 -259 -374 -131 -138 -219 -212 -355
-298 -211 -133 -341 -188 -531 -227 -147 -29 -215 -33 -356 -20 -253 24 -381
73 -580 222 -160 121 -317 280 -402 411 -84 127 -153 258 -182 345 -78 232
-105 814 -51 1115 26 147 113 495 147 590 35 99 75 176 146 282 192 287 319
413 522 517 144 74 265 110 435 132 89 11 276 -3 373 -28z m-4123 -113 c306
-61 543 -258 770 -637 98 -163 183 -391 259 -694 74 -296 85 -379 85 -632 -1
-386 -40 -615 -138 -815 -69 -139 -154 -252 -304 -402 -252 -252 -525 -395
-757 -396 -134 -1 -373 67 -547 154 -178 90 -469 343 -608 531 -123 165 -169
258 -220 453 -83 311 -81 453 10 905 91 452 169 660 348 932 222 335 415 503
672 582 154 48 264 53 430 19z m6536 -4050 c31 -61 36 -79 32 -120 -6 -59 -84
-228 -150 -324 -72 -104 -276 -365 -418 -534 -140 -167 -162 -208 -82 -154 79
54 261 248 372 397 58 78 109 137 113 133 16 -16 10 -116 -10 -162 -11 -24
-73 -116 -138 -203 -195 -262 -489 -708 -641 -972 -265 -459 -851 -1365 -999
-1544 -265 -320 -655 -736 -1272 -1356 -614 -619 -890 -865 -1353 -1206 -288
-212 -530 -337 -726 -374 -73 -13 -90 -13 -155 0 -100 21 -240 93 -336 173
-206 173 -578 580 -793 868 -339 454 -472 682 -707 1215 -268 607 -385 940
-428 1226 -21 136 -21 419 -1 468 8 20 19 36 24 36 5 0 22 -16 37 -36 28 -36
52 -41 47 -8 -2 10 -43 102 -92 204 -157 329 -207 480 -232 700 -21 191 22
367 112 455 31 30 45 37 77 37 81 -1 92 -13 181 -182 226 -430 663 -858 1279
-1256 135 -87 253 -147 425 -213 184 -71 282 -96 433 -111 286 -27 524 6 940
130 268 79 398 138 1052 477 61 32 115 54 119 50 11 -10 -101 -122 -211 -212
-103 -83 -302 -213 -520 -337 -82 -48 -235 -136 -340 -197 -289 -170 -647
-337 -785 -367 -96 -21 -371 -29 -541 -15 -183 15 -318 45 -495 111 -225 84
-349 147 -642 330 -75 48 -83 32 -32 -66 50 -95 136 -210 199 -265 60 -53 242
-174 353 -233 117 -63 226 -87 408 -88 246 -1 436 37 739 147 475 172 848 367
1466 765 454 292 571 373 935 646 543 406 835 647 1262 1036 75 68 99 84 223
139 267 120 576 283 740 392 214 142 318 247 365 369 17 44 36 105 42 136 l11
56 39 -45 c21 -24 54 -76 74 -116z"/>
<path d="M7442 11995 c-16 -13 -39 -48 -52 -76 -68 -160 -123 -606 -151 -1229
-13 -293 -6 -1193 11 -1390 26 -296 61 -488 112 -600 34 -77 59 -106 105 -121
27 -9 40 -7 70 8 44 21 67 57 87 138 46 182 94 808 117 1515 12 383 0 1136
-22 1360 -17 180 -67 339 -123 395 -35 35 -112 36 -154 0z"/>
<path d="M3440 11841 c-50 -52 -77 -137 -119 -366 -72 -403 -86 -573 -85
-1090 1 -1044 96 -1838 231 -1945 34 -27 92 -26 127 1 62 49 97 175 126 450
38 376 50 627 50 1068 0 653 -21 1007 -86 1446 -55 370 -85 454 -172 471 -29
6 -37 2 -72 -35z"/>
<path d="M8844 6208 c-131 -134 -277 -296 -554 -613 -135 -154 -290 -327 -345
-385 -613 -644 -951 -968 -1420 -1360 -245 -205 -520 -443 -530 -460 -12 -19
2 -22 32 -7 78 41 526 391 743 581 381 335 1120 1077 1534 1541 339 379 656
760 656 786 0 25 -33 1 -116 -83z"/>
</g>
</svg>
